<svg xmlns="http://www.w3.org/2000/svg" width="489" height="742" viewBox="0 0 489 742">
  <g fill="none" fill-rule="evenodd">
    <rect width="489" height="742"/>
    <path fill="#2F2F39" fill-rule="nonzero" d="M425.148668 677.148668L428.297335 677.148668C428.84962 677.148668 429.297335 677.596383 429.297335 678.148668 429.297335 678.700952 428.84962 679.148668 428.297335 679.148668L425.148668 679.148668 425.148668 682.297335C425.148668 682.84962 424.700952 683.297335 424.148668 683.297335 423.596383 683.297335 423.148668 682.84962 423.148668 682.297335L423.148668 679.148668 420 679.148668C419.447715 679.148668 419 678.700952 419 678.148668 419 677.596383 419.447715 677.148668 420 677.148668L423.148668 677.148668 423.148668 674C423.148668 673.447715 423.596383 673 424.148668 673 424.700952 673 425.148668 673.447715 425.148668 674L425.148668 677.148668zM310.5 684.75L295 684.75 295 669.25 310.5 669.25 310.5 684.75zM310.5 686.25L310.5 688.25C310.5 690.048146 309.021238 691.5 307.204545 691.5L298.295455 691.5C296.478762 691.5 295 690.048146 295 688.25L295 686.25 310.5 686.25zM310.461236 667.75L295.038764 667.75C295.282944 666.190813 296.651011 665 298.295455 665L307.204545 665C308.848989 665 310.217056 666.190813 310.461236 667.75zM302.75 689.75C303.302 689.75 303.75 689.3 303.75 688.75 303.75 688.198 303.302 687.75 302.75 687.75 302.198 687.75 301.75 688.198 301.75 688.75 301.75 689.3 302.198 689.75 302.75 689.75zM187.148668 677.148668L190.297335 677.148668C190.84962 677.148668 191.297335 677.596383 191.297335 678.148668 191.297335 678.700952 190.84962 679.148668 190.297335 679.148668L187.148668 679.148668 187.148668 682.297335C187.148668 682.84962 186.700952 683.297335 186.148668 683.297335 185.596383 683.297335 185.148668 682.84962 185.148668 682.297335L185.148668 679.148668 182 679.148668C181.447715 679.148668 181 678.700952 181 678.148668 181 677.596383 181.447715 677.148668 182 677.148668L185.148668 677.148668 185.148668 674C185.148668 673.447715 185.596383 673 186.148668 673 186.700952 673 187.148668 673.447715 187.148668 674L187.148668 677.148668zM57.6644596 673.296575L75.1444372 673.35014 81.4028419 667.005958 65.9997549 667.005958C65.7753286 667.005958 65.5574262 667.081451 65.3811024 667.220293L57.6644596 673.296575zM55.7384862 673.384883L64.7039307 666.420546C65.0548327 666.147966 65.4865142 666 65.9308473 666L82.5827173 666C82.7254764 666 82.8557178 666.053594 82.9544189 666.14176 82.992521 666.16948 83.0277776 666.202576 83.0590896 666.240994L86.3644971 670.296528C86.5404997 670.512472 86.530328 670.825129 86.3406618 671.029177L82.5828308 675.094397 82.5828308 682.414877C82.5828308 682.653686 82.4973686 682.884611 82.3419018 683.065884L76.483449 689.896805C76.1034879 690.339837 75.5489574 690.59479 74.9653068 690.59479L57.3489997 690.59479C56.796715 690.59479 56.3489997 690.147074 56.3489997 689.59479L56.3489997 679.431457 53.5455965 679.431457C53.1385802 679.431457 52.8752507 678.990942 53.0602673 678.619566L55.5629354 673.596066C55.5911596 673.539413 55.6280605 673.489129 55.6714871 673.44656 55.6917888 673.424564 55.714133 673.403915 55.7384862 673.384883zM54.4354036 678.315124L72.4518339 678.315124 74.4379883 674.464313 56.3814133 674.408981 54.4354036 678.315124zM78.8750851 677.463489L85.1921456 670.6251 82.5858017 667.427274 76.0749841 673.997295 78.8750851 677.463489z"/>
    <path fill="#2F2F39" d="M417.813333,549.406667 L418.94208,547.939296 C419.397653,547.347051 420.102466,547 420.849662,547 L426.810338,547 C427.557534,547 428.262347,547.347051 428.71792,547.939296 L429.846667,549.406667 L433.456667,549.406667 C434.121249,549.406667 434.66,549.945417 434.66,550.61 L434.66,562.643333 C434.66,563.307916 434.121249,563.846667 433.456667,563.846667 L414.203333,563.846667 C413.538751,563.846667 413,563.307916 413,562.643333 L413,550.61 C413,549.945417 413.538751,549.406667 414.203333,549.406667 L417.813333,549.406667 Z M423.83,562.643333 C427.152913,562.643333 429.846667,559.94958 429.846667,556.626667 C429.846667,553.303753 427.152913,550.61 423.83,550.61 C420.507087,550.61 417.813333,553.303753 417.813333,556.626667 C417.813333,559.94958 420.507087,562.643333 423.83,562.643333 Z M423.83,560.236667 C421.836252,560.236667 420.22,558.620415 420.22,556.626667 C420.22,554.632919 421.836252,553.016667 423.83,553.016667 C425.823748,553.016667 427.44,554.632919 427.44,556.626667 C427.44,558.620415 425.823748,560.236667 423.83,560.236667 Z M432.478958,552.565417 C432.852786,552.565417 433.155833,552.262369 433.155833,551.888542 C433.155833,551.514714 432.852786,551.211667 432.478958,551.211667 C432.10513,551.211667 431.802083,551.514714 431.802083,551.888542 C431.802083,552.262369 432.10513,552.565417 432.478958,552.565417 Z"/>
    <path fill="#2F2F39" fill-rule="nonzero" d="M302.5 559.181818C300.014719 559.181818 298 557.1671 298 554.681818 298 552.196537 300.014719 550.181818 302.5 550.181818 304.985281 550.181818 307 552.196537 307 554.681818 307 557.1671 304.985281 559.181818 302.5 559.181818zM302.5 557.136364C303.855608 557.136364 304.954545 556.037426 304.954545 554.681818 304.954545 553.32621 303.855608 552.227273 302.5 552.227273 301.144392 552.227273 300.045455 553.32621 300.045455 554.681818 300.045455 556.037426 301.144392 557.136364 302.5 557.136364zM193.886792 544.985849L194.890037 544.985849C195.219845 544.985849 195.487207 545.253211 195.487207 545.583019 195.487207 545.912827 195.219845 546.180189 194.890037 546.180189L191.498113 546.180189C191.168305 546.180189 190.900943 545.912827 190.900943 545.583019 190.900943 545.253211 191.168305 544.985849 191.498113 544.985849L192.692453 544.985849 192.692453 542.59717C192.692453 542.267362 192.959815 542 193.289622 542L199.85849 542C200.188298 542 200.45566 542.267362 200.45566 542.59717L200.45566 555.137736 201.05283 555.137736C201.382638 555.137736 201.65 555.405098 201.65 555.734905 201.65 556.064713 201.382638 556.332075 201.05283 556.332075L200.772526 556.332075 200.772526 561.60729C200.772526 564.104504 198.685705 566.119834 196.121523 566.119834L193.886792 566.119834 193.886792 567.53265C193.886792 567.862458 193.61943 568.12982 193.289622 568.12982 192.959815 568.12982 192.692453 567.862458 192.692453 567.53265L192.692453 566.119834 179.554717 566.119834 179.554717 567.53265C179.554717 567.862458 179.287355 568.12982 178.957547 568.12982 178.627739 568.12982 178.360377 567.862458 178.360377 567.53265L178.360377 566.119834 175.846745 566.119834C173.281408 566.119834 171.19434 564.104747 171.19434 561.60729L171.19434 556.332075 170.59717 556.332075C170.267362 556.332075 170 556.064713 170 555.734905 170 555.405098 170.267362 555.137736 170.59717 555.137736L176.568868 555.137736 176.568868 561.303773C176.568868 561.856058 177.016583 562.303773 177.568868 562.303773L182.734905 562.303773C183.28719 562.303773 183.734905 561.856058 183.734905 561.303773L183.734905 555.137736 199.26132 555.137736 199.26132 543.19434 193.886792 543.19434 193.886792 544.985849zM69.5 559.181818C67.0147186 559.181818 65 557.1671 65 554.681818 65 552.196537 67.0147186 550.181818 69.5 550.181818 71.9852814 550.181818 74 552.196537 74 554.681818 74 557.1671 71.9852814 559.181818 69.5 559.181818zM69.5 557.136364C70.855608 557.136364 71.9545455 556.037426 71.9545455 554.681818 71.9545455 553.32621 70.855608 552.227273 69.5 552.227273 68.144392 552.227273 67.0454545 553.32621 67.0454545 554.681818 67.0454545 556.037426 68.144392 557.136364 69.5 557.136364zM425.148668 429.148668L428.297335 429.148668C428.84962 429.148668 429.297335 429.596383 429.297335 430.148668 429.297335 430.700952 428.84962 431.148668 428.297335 431.148668L425.148668 431.148668 425.148668 434.297335C425.148668 434.84962 424.700952 435.297335 424.148668 435.297335 423.596383 435.297335 423.148668 434.84962 423.148668 434.297335L423.148668 431.148668 420 431.148668C419.447715 431.148668 419 430.700952 419 430.148668 419 429.596383 419.447715 429.148668 420 429.148668L423.148668 429.148668 423.148668 426C423.148668 425.447715 423.596383 425 424.148668 425 424.700952 425 425.148668 425.447715 425.148668 426L425.148668 429.148668zM296.912685 420.778571L296.260714 420.778571C295.442149 420.778571 294.778571 421.442149 294.778571 422.260714L294.778571 440.639286C294.778571 441.130425 294.380425 441.528571 293.889286 441.528571 293.398147 441.528571 293 441.130425 293 440.639286L293 422.260714C293 420.459872 294.459872 419 296.260714 419L310.489286 419C312.290128 419 313.75 420.459872 313.75 422.260714L313.75 432.932143C313.75 434.732986 312.290128 436.192857 310.489286 436.192857L299.817857 436.192857C298.017014 436.192857 296.557143 434.732986 296.557143 432.932143L296.557143 422.260714C296.557143 421.72701 296.685365 421.223254 296.912685 420.778571zM311.971429 431.746429L298.335714 431.746429 298.335714 432.932143C298.335714 433.750708 298.999292 434.414286 299.817857 434.414286L310.489286 434.414286C311.307851 434.414286 311.971429 433.750708 311.971429 432.932143L311.971429 431.746429zM187.148668 429.148668L190.297335 429.148668C190.84962 429.148668 191.297335 429.596383 191.297335 430.148668 191.297335 430.700952 190.84962 431.148668 190.297335 431.148668L187.148668 431.148668 187.148668 434.297335C187.148668 434.84962 186.700952 435.297335 186.148668 435.297335 185.596383 435.297335 185.148668 434.84962 185.148668 434.297335L185.148668 431.148668 182 431.148668C181.447715 431.148668 181 430.700952 181 430.148668 181 429.596383 181.447715 429.148668 182 429.148668L185.148668 429.148668 185.148668 426C185.148668 425.447715 185.596383 425 186.148668 425 186.700952 425 187.148668 425.447715 187.148668 426L187.148668 429.148668z"/>
    <path fill="#2F2F39" d="M73.3581854,425.550984 C73.3588761,425.529595 73.3592241,425.508119 73.3592241,425.486562 C73.3592241,424.404947 72.4831791,423.528125 71.4025228,423.528125 C70.4063094,423.528125 69.5839798,424.273271 69.4615484,425.237081 C69.4496108,425.237028 69.4377753,425.237001 69.4260446,425.236998 C69.3045398,424.273377 68.4827108,423.528125 67.4869732,423.528125 C66.4086609,423.528125 65.5342971,424.402107 65.5324221,425.480936 C65.5295744,425.481202 65.5281248,425.481339 65.5281248,425.481339 C65.5281248,427.644569 69.4458216,431.361875 69.4458216,431.361875 C69.4458216,431.361875 73.3618746,427.714654 73.3618746,425.551424 C73.3618746,425.551424 73.3606314,425.551275 73.3581856,425.550984 Z M69.4449997,417 C75.2195924,417 79.8899994,421.086606 79.8899994,426.139375 C79.8899994,432.993906 69.4449997,443.112499 69.4449997,443.112499 C69.4449997,443.112499 59,432.993906 59,426.139375 C59,421.086606 63.670407,417 69.4449997,417 Z"/>
    <path fill="#2F2F39" fill-rule="nonzero" d="M422.728867 296.312019L422.728867 295 422.314548 295C421.762263 295 421.314548 294.552285 421.314548 294 421.314548 293.447715 421.762263 293 422.314548 293L425.143185 293C425.69547 293 426.143185 293.447715 426.143185 294 426.143185 294.552285 425.69547 295 425.143185 295L424.728867 295 424.728867 296.311866C429.972679 296.828413 434.063369 301.368604 434.063369 306.880275 434.063369 307.43256 433.615653 307.880275 433.063369 307.880275L414.394364 307.880275C413.84208 307.880275 413.394364 307.43256 413.394364 306.880275 413.394364 301.369387 417.485442 296.829327 422.728867 296.312019zM411.848591 309.143185L436.174869 309.143185C437.195818 309.143185 438.02346 309.970827 438.02346 310.991776 438.02346 312.012725 437.195818 312.840367 436.174869 312.840367L411.848591 312.840367C410.827642 312.840367 410 312.012725 410 310.991776 410 309.970827 410.827642 309.143185 411.848591 309.143185zM302.5 307.181818C300.014719 307.181818 298 305.1671 298 302.681818 298 300.196537 300.014719 298.181818 302.5 298.181818 304.985281 298.181818 307 300.196537 307 302.681818 307 305.1671 304.985281 307.181818 302.5 307.181818zM302.5 305.136364C303.855608 305.136364 304.954545 304.037426 304.954545 302.681818 304.954545 301.32621 303.855608 300.227273 302.5 300.227273 301.144392 300.227273 300.045455 301.32621 300.045455 302.681818 300.045455 304.037426 301.144392 305.136364 302.5 305.136364z"/>
    <path fill="#2F2F39" d="M195.225885,300.147003 L195.225885,304.799988 L175.774115,304.799988 L175.774115,300.147003 C175.774115,298.664067 175.077133,297.34766 174,296.521894 L174,295.61978 C174,293.620631 175.584223,292 177.538462,292 L193.461538,292 C195.415777,292 197,293.620631 197,295.61978 L197,296.521894 C195.922867,297.34766 195.225885,298.664067 195.225885,300.147003 Z M196.73416,306.189538 L196.73416,300.161362 C196.73416,298.732656 197.899527,297.574461 199.337079,297.574461 C200.774632,297.574461 201.939999,298.732656 201.939999,300.161362 L201.939999,308.15632 C201.939999,308.206145 201.938591,308.255755 201.935789,308.305117 C201.938558,308.452881 201.939999,308.505674 201.939999,308.558684 C201.939999,310.139011 200.650957,311.42012 199.060845,311.42012 L196.73416,311.42012 L196.73416,313.941918 C196.73416,314.418372 196.345526,314.804614 195.866122,314.804614 C195.386717,314.804614 194.998083,314.418372 194.998083,313.941918 L194.998083,311.42012 L175.944388,311.42012 L175.944388,313.941918 C175.944388,314.418372 175.555754,314.804614 175.076349,314.804614 C174.596945,314.804614 174.208311,314.418372 174.208311,313.941918 L174.208311,311.42012 L171.879154,311.42012 C170.289041,311.42012 169,310.139011 169,308.558684 C169,308.505674 169.001441,308.452881 169.004311,308.400334 C169.001407,308.255755 169,308.206145 169,308.15632 L169,300.161362 C169,298.732656 170.165367,297.574461 171.602919,297.574461 C173.040472,297.574461 174.205838,298.732656 174.205838,300.161362 L174.205838,306.189538 L196.73416,306.189538 Z"/>
    <path fill="#2F2F39" fill-rule="nonzero" d="M69.5 307.181818C67.0147186 307.181818 65 305.1671 65 302.681818 65 300.196537 67.0147186 298.181818 69.5 298.181818 71.9852814 298.181818 74 300.196537 74 302.681818 74 305.1671 71.9852814 307.181818 69.5 307.181818zM69.5 305.136364C70.855608 305.136364 71.9545455 304.037426 71.9545455 302.681818 71.9545455 301.32621 70.855608 300.227273 69.5 300.227273 68.144392 300.227273 67.0454545 301.32621 67.0454545 302.681818 67.0454545 304.037426 68.144392 305.136364 69.5 305.136364zM425.148668 180.148668L428.297335 180.148668C428.84962 180.148668 429.297335 180.596383 429.297335 181.148668 429.297335 181.700952 428.84962 182.148668 428.297335 182.148668L425.148668 182.148668 425.148668 185.297335C425.148668 185.84962 424.700952 186.297335 424.148668 186.297335 423.596383 186.297335 423.148668 185.84962 423.148668 185.297335L423.148668 182.148668 420 182.148668C419.447715 182.148668 419 181.700952 419 181.148668 419 180.596383 419.447715 180.148668 420 180.148668L423.148668 180.148668 423.148668 177C423.148668 176.447715 423.596383 176 424.148668 176 424.700952 176 425.148668 176.447715 425.148668 177L425.148668 180.148668zM311.515637 190.999826C310.476777 191.611809 309.265812 191.962856 307.972857 191.962856 305.453719 191.962856 303.245829 190.630248 302.015671 188.631518L291.918717 188.631518 291.918717 173.593495 289 173.593495 289 172.700142 293.325328 170.398042 293.325328 166.710138 296.912185 166.710138 296.912185 168.508258 301.624331 166 314.283827 172.700142 314.283827 173.593495 311.329945 173.593495 311.329945 178.84029C313.495079 180.028048 314.962856 182.329044 314.962856 184.972857 314.962856 186.820909 314.245678 188.501455 313.074456 189.751361L316.741181 194.334768C317.085698 194.765414 317.015876 195.393807 316.58523 195.738324 316.154584 196.08284 315.526191 196.013019 315.181674 195.582373L311.515637 190.999826zM307.98 189.98C310.741423 189.98 312.98 187.741423 312.98 184.98 312.98 182.218576 310.741423 179.98 307.98 179.98 305.218576 179.98 302.98 182.218576 302.98 184.98 302.98 187.741423 305.218576 189.98 307.98 189.98zM187.148668 180.148668L190.297335 180.148668C190.84962 180.148668 191.297335 180.596383 191.297335 181.148668 191.297335 181.700952 190.84962 182.148668 190.297335 182.148668L187.148668 182.148668 187.148668 185.297335C187.148668 185.84962 186.700952 186.297335 186.148668 186.297335 185.596383 186.297335 185.148668 185.84962 185.148668 185.297335L185.148668 182.148668 182 182.148668C181.447715 182.148668 181 181.700952 181 181.148668 181 180.596383 181.447715 180.148668 182 180.148668L185.148668 180.148668 185.148668 177C185.148668 176.447715 185.596383 176 186.148668 176 186.700952 176 187.148668 176.447715 187.148668 177L187.148668 180.148668zM81.5193835 190.42923L81.5193835 189.261845C81.5193835 188.939481 81.7807114 188.678153 82.1030758 188.678153 82.4254401 188.678153 82.686768 188.939481 82.686768 189.261845L82.686768 190.42923 85.6052295 190.42923 85.6052295 185.175999 71.5966146 185.175999 71.5966146 190.42923 73.9313837 190.42923 73.9313837 189.261845C73.9313837 188.939481 74.1927117 188.678153 74.515076 188.678153 74.8374404 188.678153 75.0987683 188.939481 75.0987683 189.261845L75.0987683 190.42923 77.7253836 190.42923 77.7253836 187.510769C77.7253836 187.188404 77.9867115 186.927076 78.3090759 186.927076 78.6314402 186.927076 78.8927682 187.188404 78.8927682 187.510769L78.8927682 190.42923 81.5193835 190.42923zM71.5966146 184.008615L87.3563063 184.008615C87.6786707 184.008615 87.9399986 184.269943 87.9399986 184.592307L87.9399986 191.012922C87.9399986 191.335287 87.6786707 191.596615 87.3563063 191.596615L50 191.596615 50 176.48007C50 172.899931 52.9017398 170 56.4782608 170L60.7983073 170C66.7627937 170 71.5966146 174.83563 71.5966146 180.800116L71.5966146 184.008615zM60.5064612 186.343384C63.0853483 186.343384 65.1759995 184.253083 65.1759995 181.674628 65.1759995 179.094608 63.0853483 177.004307 60.5064612 177.004307 57.9275741 177.004307 55.8369229 179.094608 55.8369229 181.674628 55.8369229 184.253083 57.9275741 186.343384 60.5064612 186.343384z"/>
    <path fill="#2F2F39" d="M430.764485,71.0000689 C429.677424,70.9578852 428.263394,70.5994483 426.522395,69.9247581 C426.184283,69.7937329 426.004829,69.4237665 426.111241,69.0771202 L426.415762,68.0851995 C426.527824,67.7201512 426.914598,67.5150648 427.279646,67.6271261 C427.296579,67.632324 427.313305,67.6381707 427.329789,67.6446532 C428.79018,68.2189764 429.935079,68.536259 430.764485,68.5965008 L430.764485,63.8659592 C429.994793,63.6392921 429.469012,63.4689129 429.187127,63.3548168 C427.062365,62.6057481 426,61.2084677 426,59.1629339 C426,57.8304559 426.446554,56.7788944 427.339674,56.0082179 C428.198338,55.2672741 429.339931,54.8359126 430.764485,54.7141217 L430.764485,52.6914446 C430.764485,52.3095703 431.074056,52 431.45593,52 C431.837804,52 432.147375,52.3095703 432.147375,52.6914446 L432.147375,54.6857083 C433.134996,54.7396336 434.371016,55.0436349 435.855435,55.5977121 L435.855428,55.5977314 C436.213182,55.7312671 436.394946,56.1295356 436.26141,56.487289 C436.258558,56.4949311 436.25557,56.5025221 436.252449,56.5100584 L435.886698,57.3932464 C435.747443,57.7294967 435.371375,57.9002418 435.026571,57.7837679 C433.765421,57.3577554 432.805689,57.1182612 432.147375,57.0652853 L432.147375,61.3541286 C432.180024,61.3647519 432.216036,61.3762161 432.255413,61.3885212 C432.370654,61.4245341 432.498498,61.4641478 432.638949,61.5073633 C432.779399,61.5505788 432.874832,61.5793887 432.92525,61.5937938 C434.372969,62.0691644 435.408325,62.6597674 436.031349,63.3656206 C436.654372,64.0714738 436.965879,65.0546118 436.965879,66.315064 C436.965879,67.6763524 436.522927,68.7567237 435.637009,69.5562106 C434.780274,70.3293616 433.617074,70.7926556 432.147375,70.9461051 L432.147375,72.8266153 C432.147375,73.2084896 431.837804,73.5180599 431.45593,73.5180599 C431.074056,73.5180599 430.764485,73.2084896 430.764485,72.8266153 L430.764485,71.0000689 Z M430.937347,60.9455645 L430.937347,57.0994039 C430.325127,57.1786324 429.860567,57.3730992 429.543654,57.6828103 C429.22674,57.9925214 429.05388,58.4426762 429.02507,59.033288 C429.02507,59.9120033 429.46082,60.4846001 430.332333,60.7510957 C430.433169,60.7871086 430.634838,60.8519309 430.937347,60.9455645 Z M431.996121,68.5406513 C433.328599,68.3245738 433.994828,67.5755163 433.994828,66.2934563 C433.994828,65.3715256 433.436636,64.7233028 432.320236,64.3487684 C432.298628,64.3343632 432.242809,64.3145564 432.152777,64.2893474 C432.062744,64.2641383 432.010526,64.2479328 431.996121,64.2407302 L431.996121,68.5406513 Z"/>
    <path fill="#2F2F39" fill-rule="nonzero" d="M302.5,66.1818182 C300.014719,66.1818182 298,64.1670996 298,61.6818182 C298,59.1965368 300.014719,57.1818182 302.5,57.1818182 C304.985281,57.1818182 307,59.1965368 307,61.6818182 C307,64.1670996 304.985281,66.1818182 302.5,66.1818182 Z M302.5,64.1363636 C303.855608,64.1363636 304.954545,63.0374262 304.954545,61.6818182 C304.954545,60.3262102 303.855608,59.2272727 302.5,59.2272727 C301.144392,59.2272727 300.045455,60.3262102 300.045455,61.6818182 C300.045455,63.0374262 301.144392,64.1363636 302.5,64.1363636 Z"/>
    <path fill="#2F2F39" d="M204.855164,54.896859 C205.044922,54.9872997 205.619168,55.0401397 206.103787,54.8800679 C205.952617,55.4462675 204.956886,55.5872802 204.684701,55.5753435 C204.584014,55.571086 204.481178,55.565436 204.377349,55.5581943 C204.151032,55.7439699 203.916002,55.9318144 203.702575,56.0565932 C203.398763,56.2341324 203.082739,56.3722405 202.821295,56.4500681 C203.225157,57.4471443 203.398405,58.4982939 203.431901,59.5797231 C203.450042,60.1649419 203.415909,60.7480916 203.336227,61.3312811 C203.223963,62.1527678 203.034086,62.9506993 202.747381,63.7279007 C202.370968,64.7484923 201.866698,65.6978216 201.205569,66.5641904 C201.062196,66.7520748 200.937879,66.9551984 200.826093,67.1659615 C200.391082,67.9854985 200.124029,68.8679024 199.874042,69.7530915 C199.638774,70.5862762 199.454824,71.4338248 199.241476,72.2732962 C199.076741,72.9213421 198.914233,73.570303 198.659711,74.1916901 C198.507348,74.5634799 198.332309,74.9026028 197.866189,74.9429888 C197.726397,74.9551245 197.588514,74.988229 197.448841,75.0033887 C196.685911,75.0861501 195.927636,75.1123314 195.173697,74.9069 C194.964167,74.8498026 194.820079,74.7390694 194.746364,74.5627637 C194.699063,74.4496829 194.649655,74.3318275 194.608004,74.2136537 C194.394019,73.6071876 194.243486,72.9860392 194.105603,72.3583654 C193.945045,71.6274786 193.798171,70.8979446 193.777366,70.1475213 C193.770006,69.8823267 193.660527,69.71187 193.44344,69.6507936 C193.323896,69.617132 193.192219,69.5983913 193.069414,69.6096914 C192.748496,69.6391752 192.428613,69.6835401 192.109804,69.7318043 C191.542162,69.8177887 190.969308,69.7890609 190.399199,69.8093534 C189.356963,69.8465164 188.313773,69.8646603 187.270821,69.8740903 C186.157933,69.884157 185.044528,69.8874197 183.933748,69.7940346 C183.877497,69.7892996 183.828606,69.7885039 183.785204,69.8539968 C183.354967,70.5035148 182.990767,71.1859782 182.723754,71.919133 C182.558979,72.3714958 182.422568,72.837944 182.215346,73.2702133 C181.95979,73.8033878 181.615322,74.2833643 181.097684,74.6087202 C180.973487,74.6867865 180.842486,74.803687 180.721869,74.8372292 C179.752115,75.1069996 178.824091,75.1153951 177.784561,74.8904671 C177.677588,74.8673098 177.52061,74.7975992 177.505135,74.6921978 C177.474026,74.4796044 177.489263,74.2712286 177.533062,74.0667124 C177.680612,73.377644 177.915641,72.7056849 177.983747,72.0020934 C178.038088,71.4404298 178.036219,70.8765778 177.933065,70.3132033 C177.849564,69.8573391 177.698911,69.4282927 177.532187,69.0005594 C177.432176,68.743999 177.286854,68.5726271 176.989766,68.515291 C176.38079,68.3977141 175.770701,68.2715825 175.175928,68.0981814 C174.327627,67.8508122 173.481434,67.598191 172.666669,67.2396112 C171.991179,66.9423067 171.338762,66.6093909 170.71284,66.2253063 C170.016305,65.7979311 169.344594,65.3316023 168.730567,64.7891966 C168.536473,64.6177452 168.326904,64.5258721 168.062914,64.490778 C167.495192,64.4152582 167.277348,64.1751705 167.210515,63.6228972 C167.201803,63.551038 167.163772,63.5170978 167.122757,63.4780647 C166.790383,63.1618603 166.539441,62.7891952 166.351831,62.3726426 C166.020491,61.6370607 165.905483,60.8738253 166.083187,60.0805093 C166.143734,59.8100227 166.25182,59.5554517 166.476785,59.3712678 C166.631933,59.244221 166.817991,59.2698055 166.998161,59.2669804 C167.012045,59.2667815 167.026247,59.2687312 167.039852,59.2667417 C167.689763,59.1684625 168.343095,59.1068291 169.000445,59.1041235 C169.137492,59.1035664 169.265389,59.0844278 169.374033,59.0140806 C169.623821,58.852298 169.869114,58.6838307 170.086082,58.4760916 C170.565966,58.0166065 170.93498,57.4697445 171.314058,56.9313974 C171.711276,56.3672668 172.155079,55.8486949 172.689822,55.4081495 C172.878545,55.2526933 173.109636,55.1566821 173.27103,54.9886923 C173.069019,54.0919245 172.869634,53.2090034 172.672517,52.3256048 C172.662174,52.2792902 172.654615,52.2205216 172.673949,52.1813691 C172.781956,51.9624094 172.911445,51.7720184 173.148105,51.6533274 C173.479843,51.4868496 173.818423,51.4678304 174.172916,51.5127125 C174.799157,51.5920123 175.354388,51.8537055 175.882607,52.1808916 C176.47551,52.5481455 177.019324,52.9819665 177.544996,53.4524334 C178.012509,53.1195574 178.483522,52.8207011 178.973391,52.5617931 C179.801722,52.1240727 180.649466,51.7242714 181.534366,51.4062766 C182.631699,51.0119661 183.746457,50.6862522 184.89296,50.4694013 C185.412228,50.3711619 185.93261,50.2859734 186.456215,50.2118064 C186.942504,50.143011 187.430424,50.0966566 187.917907,50.0605678 C188.604058,50.0097969 189.292199,49.9909766 189.982408,50.0039877 C190.595958,50.0155663 191.207719,50.0480741 191.817092,50.1019883 C192.47472,50.1601203 193.128529,50.260747 193.778758,50.3843321 C194.51937,50.5251061 195.251987,50.7025259 195.965389,50.93764 C196.695578,51.1782847 197.395852,51.496399 198.094734,51.827007 C199.026417,52.2677116 200.994329,53.966907 202.030836,55.1706879 C202.237382,55.1133119 202.495962,54.9910001 202.682537,54.9207722 C202.395991,54.8133017 202.134626,54.5174297 201.957479,54.1549505 C201.63143,53.4873683 201.970726,52.6748341 202.527349,52.3895459 C203.482344,51.8999803 204.377667,52.6402971 204.642612,53.0125644 C204.710559,53.1079787 205.354104,53.8987482 204.855164,54.896859 C204.807427,54.9923927 204.860734,54.8858374 204.855164,54.896859 Z M202.778013,53.4402181 C202.646694,53.7745265 202.842538,54.0434216 202.969043,54.1804554 C203.112257,54.3357126 203.339091,54.4551199 203.482344,54.5028668 C203.629536,54.3824251 203.806802,54.1811716 203.864366,53.9894675 C203.971776,53.6312856 203.766742,53.3689955 203.595165,53.2325983 C203.25551,52.962629 202.848068,53.2620025 202.778013,53.4402181 Z"/>
    <path fill="#2F2F39" fill-rule="nonzero" d="M68.5,66.1818182 C66.0147186,66.1818182 64,64.1670996 64,61.6818182 C64,59.1965368 66.0147186,57.1818182 68.5,57.1818182 C70.9852814,57.1818182 73,59.1965368 73,61.6818182 C73,64.1670996 70.9852814,66.1818182 68.5,66.1818182 Z M68.5,64.1363636 C69.855608,64.1363636 70.9545455,63.0374262 70.9545455,61.6818182 C70.9545455,60.3262102 69.855608,59.2272727 68.5,59.2272727 C67.144392,59.2272727 66.0454545,60.3262102 66.0454545,61.6818182 C66.0454545,63.0374262 67.144392,64.1363636 68.5,64.1363636 Z"/>
  </g>
</svg>
